<svg width="30" height="24" viewBox="0 0 30 24" fill="none" xmlns="http://www.w3.org/2000/svg">
<path d="M19.25 0C18.9526 0.532608 18.6876 1.08265 18.4564 1.64715C16.1844 1.28784 13.8702 1.28784 11.5982 1.64715C11.367 1.08265 11.102 0.532608 10.8046 0C8.66452 0.365668 6.58404 1.02054 4.62034 1.94663C1.10883 7.01428 -0.483664 13.1666 0.12812 19.3016C2.41651 21.0219 4.98489 22.3339 7.71997 23.1798C8.34276 22.3572 8.89858 21.4859 9.38209 20.5744C8.48975 20.2453 7.63207 19.829 6.82152 19.3315C7.04383 19.1836 7.25412 19.0184 7.45044 18.8374C9.81403 19.9759 12.4038 20.5671 15.0273 20.5671C17.6508 20.5671 20.2406 19.9759 22.6042 18.8374C22.8138 19.0171 23.0235 19.1818 23.2331 19.3315C22.4181 19.8251 21.5613 20.246 20.6725 20.5893C21.136 21.5215 21.677 22.4131 22.2897 23.2547C25.0214 22.4117 27.5853 21.0993 29.8666 19.3764C30.4931 13.2404 28.8993 7.083 25.3744 2.0215C23.4327 1.07624 21.3728 0.396319 19.25 0ZM10.0559 15.7976C9.3066 15.7438 8.60725 15.4018 8.10468 14.8434C7.60212 14.285 7.33543 13.5537 7.36059 12.8028C7.33163 12.051 7.59701 11.3175 8.10033 10.7583C8.60364 10.199 9.30521 9.85813 10.0559 9.80801C10.8066 9.85813 11.5082 10.199 12.0115 10.7583C12.5148 11.3175 12.7802 12.051 12.7513 12.8028C12.7802 13.5546 12.5148 14.2881 12.0115 14.8474C11.5082 15.4066 10.8066 15.7475 10.0559 15.7976ZM19.9987 15.7976C19.2494 15.7438 18.55 15.4018 18.0475 14.8434C17.5449 14.285 17.2782 13.5537 17.3034 12.8028C17.2744 12.051 17.5398 11.3175 18.0431 10.7583C18.5464 10.199 19.248 9.85813 19.9987 9.80801C20.7508 9.85439 21.4546 10.1942 21.9587 10.7543C22.4628 11.3144 22.7269 12.05 22.694 12.8028C22.7269 13.5556 22.4628 14.2913 21.9587 14.8513C21.4546 15.4114 20.7508 15.7512 19.9987 15.7976Z" fill="white"/>
</svg>
