<svg width="30" height="23" viewBox="0 0 30 23" fill="none" xmlns="http://www.w3.org/2000/svg">
<path d="M30 3.32917V20.7154C30 21.8454 29.085 22.7604 27.955 22.7604H23.1812V11.1704L15 17.3079L6.81875 11.1704V22.7617H2.045C1.77634 22.7617 1.51032 22.7087 1.26212 22.6059C1.01393 22.503 0.788437 22.3523 0.598525 22.1623C0.408613 21.9722 0.258005 21.7467 0.155308 21.4984C0.0526105 21.2501 -0.000163835 20.9841 3.82064e-07 20.7154V3.32917C3.82064e-07 0.800424 2.88625 -0.643326 4.90875 0.874174L6.81875 2.30792L15 8.44292L23.1812 2.30542L25.0912 0.874174C27.1125 -0.642076 30 0.800424 30 3.32917Z" fill="white"/>
</svg>
