<svg width="34" height="34" viewBox="0 0 34 34" fill="none" xmlns="http://www.w3.org/2000/svg">
<path d="M24.5 1.76172H9.5C5.35786 1.76172 2 5.11958 2 9.26172V24.2617C2 28.4039 5.35786 31.7617 9.5 31.7617H24.5C28.6421 31.7617 32 28.4039 32 24.2617V9.26172C32 5.11958 28.6421 1.76172 24.5 1.76172Z" stroke="white" stroke-width="3" stroke-linecap="round" stroke-linejoin="round"/>
<path d="M23 15.8166C23.1851 17.0649 22.9719 18.3399 22.3906 19.4601C21.8094 20.5803 20.8897 21.4887 19.7624 22.0561C18.6351 22.6235 17.3577 22.821 16.1117 22.6205C14.8657 22.42 13.7146 21.8317 12.8222 20.9393C11.9299 20.0469 11.3416 18.8959 11.1411 17.6499C10.9406 16.4039 11.1381 15.1264 11.7055 13.9991C12.2729 12.8718 13.1813 11.9522 14.3015 11.3709C15.4217 10.7897 16.6966 10.5764 17.945 10.7616C19.2184 10.9504 20.3973 11.5438 21.3075 12.454C22.2178 13.3643 22.8112 14.5432 23 15.8166Z" stroke="white" stroke-width="3" stroke-linecap="round" stroke-linejoin="round"/>
<path d="M25.2501 8.51196H25.2679" stroke="white" stroke-width="3" stroke-linecap="round" stroke-linejoin="round"/>
</svg>
